<svg width="145" height="122" viewBox="0 0 145 122" fill="none" xmlns="http://www.w3.org/2000/svg">
<path d="M123.114 27.2951V0.0996094H60.1895V59.9298H128.586L123.114 27.2951Z" fill="#108060"/>
<path d="M60.1895 59.9302V119.76H139.529L128.586 59.9302H60.1895Z" fill="#00735C"/>
<path d="M117.642 32.7342L145 5.53872V0.0996094H117.642V32.7342Z" fill="#108060"/>
<path d="M65.6603 0.0996094H49.2452C43.2263 0.0996094 38.3018 4.99481 38.3018 10.9778V31.35C38.3018 33.6165 40.1391 35.4538 42.4055 35.4538V35.4538C44.672 35.4538 46.5093 33.6165 46.5093 31.35V10.9778C46.5093 9.34609 47.6037 8.25827 49.2452 8.25827H65.6603V0.0996094Z" fill="#108060"/>
<path d="M60.1887 119.76C26.8114 119.76 0 93.1087 0 59.9302H60.1887V119.76Z" fill="#EC856F"/>
<path d="M60.1895 119.76C93.5668 119.76 120.378 93.1087 120.378 59.9302H60.1895V119.76Z" fill="#DE6A5A"/>
<path d="M60.19 78.9668H3.01074C3.8315 81.6863 5.19939 84.4059 6.56732 87.1255H60.19V78.9668Z" fill="white"/>
<path d="M60.1895 78.9668V87.1255H113.812C115.18 84.4059 116.274 81.6863 117.369 78.9668H60.1895Z" fill="#E9B99E"/>
</svg>
